<svg width="68" height="20" viewBox="0 0 68 20" fill="none" xmlns="http://www.w3.org/2000/svg">
<path d="M13.2734 5.2832C14.0279 5.34239 14.6901 5.51955 15.2597 5.81543C15.8293 6.11132 16.3057 6.53367 16.6904 7.08105C16.0102 7.48036 15.5036 7.96824 15.1708 8.54492C14.838 9.12191 14.6718 9.78078 14.6718 10.5205C14.6718 11.0973 14.7787 11.6224 14.9931 12.0957C15.2076 12.569 15.5147 12.9982 15.914 13.3828C16.1063 13.5603 16.3065 13.7165 16.5136 13.8496C16.7206 13.9827 16.9354 14.1006 17.1572 14.2041C17.1128 14.3373 17.0644 14.4747 17.0126 14.6152C16.9609 14.7556 16.9057 14.8924 16.8466 15.0254C16.7135 15.3509 16.565 15.6578 16.4023 15.9463C16.2396 16.2347 16.0623 16.5121 15.8701 16.7783C15.6185 17.1334 15.3887 17.437 15.1816 17.6885C14.9746 17.9398 14.7896 18.1392 14.6269 18.2871C14.3902 18.509 14.135 18.6795 13.8613 18.7979C13.5876 18.9162 13.3103 18.9756 13.0292 18.9756C12.8221 18.9756 12.5965 18.9459 12.3525 18.8867C12.1084 18.8275 11.8378 18.7385 11.5419 18.6201C11.2611 18.5019 10.9877 18.417 10.7216 18.3652C10.4553 18.3135 10.2034 18.2871 9.96674 18.2871C9.70045 18.2871 9.43419 18.3135 9.16791 18.3652C8.90161 18.417 8.62005 18.5018 8.32416 18.6201C8.02837 18.7384 7.76197 18.8309 7.52533 18.8975C7.28871 18.964 7.08171 18.998 6.90424 18.998C6.63812 19.0128 6.36817 18.961 6.09467 18.8428C5.82097 18.7244 5.54275 18.5386 5.26166 18.2871C5.09907 18.1245 4.9071 17.9138 4.68549 17.6553C4.46357 17.3964 4.22606 17.0818 3.97455 16.7119C3.69352 16.3273 3.43819 15.9058 3.20892 15.4473C2.97963 14.9887 2.7694 14.5002 2.57709 13.9824C2.38481 13.4204 2.24063 12.8656 2.14447 12.3184C2.04831 11.771 1.99994 11.2375 1.99994 10.7197C1.99997 10.1133 2.06701 9.55089 2.20013 9.0332C2.33328 8.51557 2.53254 8.03452 2.79877 7.59082C3.00582 7.25069 3.24255 6.94018 3.50873 6.65918C3.77501 6.37811 4.07864 6.14154 4.41888 5.94922C4.77395 5.74209 5.13259 5.58598 5.49506 5.48242C5.85739 5.3789 6.23834 5.32048 6.63763 5.30566C6.85947 5.30566 7.1149 5.33875 7.40326 5.40527C7.69175 5.47185 8.01401 5.57193 8.36908 5.70508C8.70927 5.83819 8.9943 5.93832 9.22357 6.00488C9.45267 6.07138 9.61908 6.10448 9.7226 6.10449C9.79657 6.10449 9.95937 6.06714 10.2109 5.99316C10.4623 5.91921 10.8026 5.80132 11.2314 5.63867C11.6308 5.49073 12.0015 5.38633 12.3417 5.32715C12.6818 5.26805 12.9924 5.25363 13.2734 5.2832ZM13.4091 1.37695C13.4091 1.82079 13.3244 2.25414 13.1542 2.67578C12.9841 3.09725 12.7364 3.50025 12.4111 3.88477C12.0116 4.3434 11.5783 4.69869 11.1122 4.9502C10.6463 5.20158 10.1544 5.30512 9.63666 5.26074C9.62192 5.20174 9.61423 5.14637 9.6142 5.09473V4.92773C9.61422 4.48406 9.70336 4.04036 9.8808 3.59668C10.0583 3.15284 10.3179 2.74584 10.6581 2.37598C10.8208 2.18378 11.0092 2.00639 11.2236 1.84375C11.4381 1.68101 11.6713 1.54023 11.9228 1.42188C12.1889 1.28881 12.4401 1.18864 12.6767 1.12207C12.9134 1.05549 13.1509 1.01479 13.3876 1L13.4091 1.37695Z" fill="#303638"/>
<path d="M35.5195 15.5L34.5215 12.7246H30.7002L29.7227 15.5H28L31.7393 5.46484H33.5166L37.2559 15.5H35.5195ZM34.0908 11.3164L33.1543 8.5957C33.0859 8.41341 32.9902 8.1263 32.8672 7.73438C32.7487 7.34245 32.6667 7.05534 32.6211 6.87305C32.498 7.43359 32.318 8.04655 32.0811 8.71191L31.1787 11.3164H34.0908ZM42.5193 15.6367C41.5622 15.6367 40.8194 15.2926 40.2907 14.6045H40.195C40.2588 15.2425 40.2907 15.6299 40.2907 15.7666V18.8633H38.6843V7.93945H39.9831C40.0196 8.08073 40.0948 8.41797 40.2087 8.95117H40.2907C40.792 8.18555 41.544 7.80273 42.5466 7.80273C43.49 7.80273 44.2237 8.14453 44.7478 8.82812C45.2764 9.51172 45.5407 10.471 45.5407 11.7061C45.5407 12.9411 45.2719 13.9049 44.7341 14.5977C44.2009 15.2904 43.4626 15.6367 42.5193 15.6367ZM42.1296 9.11523C41.4916 9.11523 41.0245 9.30208 40.7282 9.67578C40.4366 10.0495 40.2907 10.6465 40.2907 11.4668V11.7061C40.2907 12.6266 40.4366 13.2943 40.7282 13.709C41.0199 14.1191 41.4961 14.3242 42.157 14.3242C42.7129 14.3242 43.1413 14.0964 43.4421 13.6406C43.7429 13.1849 43.8933 12.5355 43.8933 11.6924C43.8933 10.8447 43.7429 10.2044 43.4421 9.77148C43.1459 9.33398 42.7084 9.11523 42.1296 9.11523ZM51.5219 15.6367C50.5649 15.6367 49.822 15.2926 49.2934 14.6045H49.1977C49.2615 15.2425 49.2934 15.6299 49.2934 15.7666V18.8633H47.687V7.93945H48.9858C49.0222 8.08073 49.0974 8.41797 49.2114 8.95117H49.2934C49.7947 8.18555 50.5467 7.80273 51.5493 7.80273C52.4926 7.80273 53.2263 8.14453 53.7504 8.82812C54.2791 9.51172 54.5434 10.471 54.5434 11.7061C54.5434 12.9411 54.2745 13.9049 53.7368 14.5977C53.2036 15.2904 52.4653 15.6367 51.5219 15.6367ZM51.1323 9.11523C50.4942 9.11523 50.0271 9.30208 49.7309 9.67578C49.4392 10.0495 49.2934 10.6465 49.2934 11.4668V11.7061C49.2934 12.6266 49.4392 13.2943 49.7309 13.709C50.0226 14.1191 50.4988 14.3242 51.1596 14.3242C51.7156 14.3242 52.144 14.0964 52.4448 13.6406C52.7455 13.1849 52.8959 12.5355 52.8959 11.6924C52.8959 10.8447 52.7455 10.2044 52.4448 9.77148C52.1485 9.33398 51.711 9.11523 51.1323 9.11523ZM58.2961 15.5H56.6896V4.86328H58.2961V15.5ZM64.1815 15.6367C63.0057 15.6367 62.0852 15.2949 61.4198 14.6113C60.759 13.9232 60.4286 12.9775 60.4286 11.7744C60.4286 10.5394 60.7362 9.56868 61.3514 8.8623C61.9667 8.15592 62.8121 7.80273 63.8876 7.80273C64.8856 7.80273 65.674 8.10579 66.2528 8.71191C66.8316 9.31803 67.121 10.152 67.121 11.2139V12.082H62.0829C62.1057 12.8158 62.3039 13.3809 62.6776 13.7773C63.0513 14.1693 63.5777 14.3652 64.2567 14.3652C64.7033 14.3652 65.118 14.3242 65.5009 14.2422C65.8882 14.1556 66.3029 14.0143 66.745 13.8184V15.124C66.3531 15.3109 65.9566 15.443 65.5555 15.5205C65.1545 15.598 64.6965 15.6367 64.1815 15.6367ZM63.8876 9.01953C63.3772 9.01953 62.967 9.18132 62.6571 9.50488C62.3518 9.82845 62.1695 10.3001 62.1102 10.9199H65.5419C65.5328 10.2956 65.3824 9.82389 65.0907 9.50488C64.799 9.18132 64.398 9.01953 63.8876 9.01953Z" fill="#172B4D"/>
</svg>
